HIERARCHY
ROOT Hips
{
  OFFSET 271.188 81.2996 290.664
  CHANNELS 6 Xposition Yposition Zposition Zrotation Xrotation Yrotation
  JOINT ToSpine
  {
    OFFSET -0.0105055 1.38907 -7.13956
    CHANNELS 3 Zrotation Xrotation Yrotation
    JOINT Spine
    {
      OFFSET 0.0105055 10 1
      CHANNELS 3 Zrotation Xrotation Yrotation
      JOINT Spine1
      {
        OFFSET 0 12 1.60637
        CHANNELS 3 Zrotation Xrotation Yrotation
        JOINT Neck
        {
          OFFSET 0 27 2.26658
          CHANNELS 3 Zrotation Xrotation Yrotation
          JOINT Head
          {
            OFFSET 0 9 2.12705
            CHANNELS 3 Zrotation Xrotation Yrotation
            End Site
            {
              OFFSET 0 11 2
            }
          }
        }
        JOINT LeftShoulder
        {
          OFFSET 8 19.6109 2.86452
          CHANNELS 3 Zrotation Xrotation Yrotation
          JOINT LeftArm
          {
            OFFSET 12 1 0.681055
            CHANNELS 3 Zrotation Xrotation Yrotation
            JOINT LeftForeArm
            {
              OFFSET 19 0 -1.52608
              CHANNELS 3 Zrotation Xrotation Yrotation
              JOINT LeftHand
              {
                OFFSET 23 0 0
                CHANNELS 3 Zrotation Xrotation Yrotation
                End Site
                {
                  OFFSET 10 0 0
                }
              }
            }
          }
        }
        JOINT RightShoulder
        {
          OFFSET -8 19.6109 2.86452
          CHANNELS 3 Zrotation Xrotation Yrotation
          JOINT RightArm
          {
            OFFSET -12 1 0.681055
            CHANNELS 3 Zrotation Xrotation Yrotation
            JOINT RightForeArm
            {
              OFFSET -19 0 -1.52608
              CHANNELS 3 Zrotation Xrotation Yrotation
              JOINT RightHand
              {
                OFFSET -23 0 0
                CHANNELS 3 Zrotation Xrotation Yrotation
                End Site
                {
                  OFFSET -10 0 0
                }
              }
            }
          }
        }
      }
    }
  }
  JOINT LeftUpLeg
  {
    OFFSET 9 -7.17245 0
    CHANNELS 3 Zrotation Xrotation Yrotation
    JOINT LeftLeg
    {
      OFFSET 0 -44.1113 0
      CHANNELS 3 Zrotation Xrotation Yrotation
      JOINT LeftFoot
      {
        OFFSET 0 -36.1829 0
        CHANNELS 3 Zrotation Xrotation Yrotation
        JOINT LeftToeBase
        {
          OFFSET 0 -4.84184 13
          CHANNELS 3 Zrotation Xrotation Yrotation
          End Site
          {
            OFFSET 0 1 6
          }
        }
      }
    }
  }
  JOINT RightUpLeg
  {
    OFFSET -9 -7.17245 0
    CHANNELS 3 Zrotation Xrotation Yrotation
    JOINT RightLeg
    {
      OFFSET 0 -44.0551 0
      CHANNELS 3 Zrotation Xrotation Yrotation
      JOINT RightFoot
      {
        OFFSET 0 -36.1469 0
        CHANNELS 3 Zrotation Xrotation Yrotation
        JOINT RightToeBase
        {
          OFFSET 0 -4.92256 13
          CHANNELS 3 Zrotation Xrotation Yrotation
          End Site
          {
            OFFSET 0 1 6
          }
        }
      }
    }
  }
}
MOTION
Frames:	10
Frame Time:	0.0333333
271.188 81.2996 290.664 24.7244 -17.026 -129.341 0 0 0 12.9425 11.4165 4.53089 -8.82475 -10.3236 6.55832 -4.82336 -26.8464 -3.28719 -3.77836 0.628913 -2.42125 -11.1956 2.17577 -8.27978 -54.9674 31.5115 50.5149 55.9866 -16.4313 -100.807 -4.3056 0.0909985 -2.42039 10.1315 3.35051 15.5327 38.1647 -18.1674 35.8534 28.7237 -9.64791 72.9956 -15.9276 -2.18171 15.5017 14.4361 -71.2367 5.42316 -180 82.6596 -176.634 30.0068 -22.9995 6.24212 1.62328 -22.9782 -1.06471 7.81256 -24.0022 -9.14579 -7.15625e-008 51.8113 -4.26961 -35.8404 -38.9506 -13.0478 7.82095 -29.9506 -3.33317 
263.203 83.2726 282.926 15.8383 -17.3009 -126.893 0 0 0 9.2073 15.8764 5.45057 -12.5563 -9.46297 7.52368 -4.40577 -24.8888 -8.47147 -5.3953 0.660616 -6.88081 -3.31865 1.56273 -10.1726 -56.1821 33.8687 53.4814 53.9313 -18.3553 -102.919 -3.81525 0.125973 -3.78086 2.46745 1.84614 13.7479 40.87 -23.0017 32.7204 34.2513 -5.77301 81.5967 -18.4437 -2.45249 15.0212 -9.33983 -69.5048 -13.8781 -6.34881e-007 83.8707 -1.4514 29.9791 -22.1112 5.9895 1.51426 -21.2655 -1.0718 1.47056 -4.81973 -13.5599 4.24304e-009 37.2655 0.142422 -31.4059 -25.4746 -7.27259 10.0698 -37.8532 -3.00971 
253.66 85.916 274.503 7.5696 -19.5172 -129.538 0 0 0 5.97381 17.1083 8.7994 -18.494 -6.48145 11.5048 -3.0072 -23.4876 -12.7086 -6.20232 2.1443 -10.4629 0.279808 1.22348 -11.3296 -52.4826 35.7771 50.2836 50.6646 -18.5036 -104.579 -3.97223 0.096213 -2.77392 -1.28261 1.14261 12.0065 41.7221 -24.328 23.5279 37.2929 -2.12561e-015 90 -19.5409 -2.77196 15.9958 -16.6178 -63.6376 -11.5107 -8.11048e-008 66.2016 1.48142 25.0414 -26.9836 6.09985 2.48158 -15.6753 -13.6992 -4.11225 12.2447 -9.03139 0.169012 19.9449 4.0332 -28.0614 0.109243 0.0272995 11.7145 -44.3919 -3.90535 
245.127 88.128 265.458 8.50769 -21.6223 -127.273 0 0 0 6.36682 13.7008 10.7363 -23.1615 -5.85537 13.7814 2.62551 -22.3291 -15.7594 -8.90192 1.52406 -12.2289 1.73515 1.14658 -12.9398 -48.9111 34.7187 44.3914 56.1576 -21.1275 -103.587 -4.83358 0.297579 -7.04178 1.56964 1.42805 10.9482 38.5671 -22.6392 16.4332 33.6117 4.85033 97.2495 -23.8053 -3.24098 15.2888 -16.5891 -63.9191 -4.37187 6.84769e-008 53.9501 -11.3026 26.0848 -17.7303 4.13847 1.4728 -15.6993 -3.99588 -2.6431 15.3206 -6.10288 -4.67087 18.5412 10.51 -3.53878 3.10504 0.0959428 3.97512 -15.3389 -11.907 
237.547 88.5976 257.677 9.17906 -21.3394 -125.601 0 0 0 7.18068 11.5884 10.9506 -23.8565 -3.67955 14.3351 1.62984 -22.1752 -16.5533 -6.93715 1.3933 -13.5381 -5.48953 1.9542 -11.1152 -40.9922 34.5104 31.71 58.4203 -19.4108 -101.546 -4.96539 0.202118 -4.659 4.96431 1.9149 11.3392 40.0851 -17.4874 13.1902 35.8498 8.44317 101.487 -27.081 -1.01844 4.22713 -13.2349 -62.1228 6.43429 -1.43167e-006 47.5427 -21.0069 22.2683 -14.2233 2.81321 1.29786 -12.7075 -3.4402 -0.854891 15.0973 -3.0074 -0.186423 27.4835 9.13754 -14.0575 -1.43133 -0.176483 1.1428 -2.26321 -5.02394 
230.509 88.566 250.318 8.07079 -18.3139 -123.712 0 0 0 6.51954 13.0555 9.29077 -21.1414 -3.17113 12.5914 4.03226 -22.4055 -15.4215 -6.64053 0.852462 -12.366 -15.192 2.80171 -9.16351 -36.5832 30.7511 16.6257 58.2692 -14.2481 -98.6535 -7.42578 0.1558 -2.40053 12.081 3.4346 14.2452 40.8507 -17.9308 4.70162 -81.5754 -14.4939 92.1228 42.1768 -3.39901 -8.79931 -9.40587 -54.8108 13.6439 5.43591e-008 45.1202 -19.1721 15.5996 -14.5637 2.00554 1.48419 -10.1623 -5.30246 3.01792 12.1427 -7.83539 -2.39709e-007 45.6874 10.2295 -25.399 -0.405878 -0.091465 6.12895 -21.8291 2.06677 
223.004 89.4491 242.418 5.647 -16.912 -119.893 0 0 0 2.74083 14.7839 6.0716 -17.6769 -3.38543 9.15405 10.5834 -22.0488 -13.2802 -9.46139 0.62406 -9.09484 -23.2157 3.70202 -8.99948 -35.963 28.1663 2.84453 63.1044 -9.72468 -94.8971 -11.1926 0.929647 -9.46619 18.4985 4.32928 13.6389 44.2795 -13.2339 -0.361103 -81.4976 2.86338 89.5721 37.4686 1.78339 5.25517 -10.5911 -44.2015 13.2037 9.93521e-008 43.2757 -14.0632 20.9513 -3.03714 0.561692 1.71611 -21.6696 -4.65549 2.92539 6.86954 -13.9559 -2.14363e-008 63.5219 1.2068 -26.612 -2.30135 -0.544339 5.09624 -18.7196 0.284093 
216.824 88.1698 235.039 7.79496 -20.5113 -123.179 0 0 0 -6.00465 10.3319 6.64788 -11.1609 -6.37632 7.69849 12.856 -18.7232 -10.5817 -7.4183 -0.0357111 -6.56162 -28.8153 4.17577 -8.42496 -33.3308 30.6393 -13.9717 60.882 -5.31263 -92.9523 -12.9193 2.70061 -23.5207 21.6864 5.06582 14.4165 49.7159 -6.50108 -6.9961 -50.5926 22.871 72.2901 34.5389 1.29068 4.15006 -4.51802 -45.1898 20.2891 5.80245e-007 53.5922 -16.5512 17.9866 -19.1366 3.05639 1.30866 -12.1181 -3.68806 -0.0881435 -11.0105 -8.70678 -1.07362e-006 86.9941 -14.4993 -25.5717 -12.3733 -2.81833 4.20514 -15.7525 -2.62132 
208.951 87.7956 227.535 2.79336 -16.8892 -115.542 0 0 0 -6.9725 15.3518 0.707536 -7.28138 -4.02608 1.08673 13.7891 -18.3377 -8.34475 -6.59985 -0.73687 -4.52231 -26.3918 4.24225 -9.48348 -26.2937 27.7536 -41.3536 83.3589 -5.61811 -90.653 -7.83641 2.94031 -41.0827 22.6431 4.86399 13.1836 54.8689 -5.80306 -19.9738 -31.7426 20.5989 60.3729 26.2963 -0.890857 -3.81238 -8.06836 -30.4073 10.5215 7.372e-007 53.4909 -14.3875 22.8694 -22.1076 4.52559 1.83023 -24.8345 -5.60851 -4.20299 -15.4829 -13.0331 -180 79.7846 165.494 -27.875 -19.5296 -4.89117 3.2978 -12.1485 -2.41475 
201.63 87.0494 220.441 3.24813 -14.6358 -115.502 0 0 0 -6.56643 16.0017 -2.5273 -3.54278 -4.85378 -2.79697 12.9443 -15.541 -4.58899 -5.731 -2.85687 -1.11107 -20.0325 4.06554 -11.7505 -24.9946 17.7193 -58.4908 81.4395 -5.96303 -90.8959 -5.66502 1.89163 -36.9049 18.8537 3.48831 10.1648 61.4468 -1.1029 -33.2258 -24.5767 18.3305 55.4852 12.1789 0.744296 6.9682 -2.54901 -21.8883 11.9663 5.37582e-008 53.0824 -16.5044 21.0178 -31.1605 5.9218 1.81024 -21.9246 -6.50775 -6.55951 -29.859 -8.32381 180 71.9796 168.334 -33.751 -21.9425 -6.73119 4.38018 -16.3739 -1.87428 
